# xmcd
#
# Track frame offsets:
#	150
#	8014
#	17922
#	27171
#	40152
#	48127
#	58373
#	67847
#	78085
#	92616
#	103973
#	116983
#	124647
#	139809
#
# Disc length: 1979 seconds
#
# Revision: 0
# Processed by: cddbd v1.4PL0 Copyright (c) Steve Scherf et al.
# Submitted via: audiograbber 1.80
#
DISCID=b307b90e
DTITLE=Bee Gees - In The Beginning
DYEAR=1900
DGENRE=
TTITLE0=Timber
TTITLE1=Claustrophobia
TTITLE2=Could It Be
TTITLE3=I Don't Think It's Funny
TTITLE4=Three Kisses Of Love
TTITLE5=Turn Around, Look At Me
TTITLE6=Every Day I Have To Cry
TTITLE7=How Love Was True
TTITLE8=You Won't See Me
TTITLE9=Lonely Winter
TTITLE10=Play Down
TTITLE11=Big Chance
TTITLE12=Children Laughing
TTITLE13=Glass House
EXTD=
EXTT0=
EXTT1=
EXTT2=
EXTT3=
EXTT4=
EXTT5=
EXTT6=
EXTT7=
EXTT8=
EXTT9=
EXTT10=
EXTT11=
EXTT12=
EXTT13=
PLAYORDER=
